<?xml version="1.0" ?>
<svg xmlns="http://www.w3.org/2000/svg" viewBox="0 0 512 540" width="512" height="540">
  <g transform="translate(26,20)">
    <rect x="0" y="0" width="460" height="490" rx="32" ry="32" fill="#232323"/>
    <rect x="14" y="14" width="432" height="462" rx="24" ry="24" fill="#1a1a1a"/>
    <rect x="40" y="360" width="380" height="90" rx="10" ry="10" fill="#0f0f0f"/>
    <g>
      <rect x="60" y="370" width="45" height="70" rx="4" ry="4" fill="#d9a92b"/>
      <rect x="115" y="370" width="45" height="70" rx="4" ry="4" fill="#d9a92b"/>
      <rect x="170" y="370" width="45" height="70" rx="4" ry="4" fill="#d9a92b"/>
      <rect x="225" y="370" width="45" height="70" rx="4" ry="4" fill="#d9a92b"/>
      <rect x="280" y="370" width="45" height="70" rx="4" ry="4" fill="#d9a92b"/>
      <rect x="335" y="370" width="45" height="70" rx="4" ry="4" fill="#d9a92b"/>
    </g>
    <path d="M10 10 Q230 0 450 10 L450 28 Q230 18 10 28 Z" fill="rgba(255,255,255,0.02)"/>
  </g>
</svg>
